<svg width="163" height="19" viewBox="0 0 163 19" fill="none" xmlns="http://www.w3.org/2000/svg">
<path d="M0.432 18L4.848 1.2H10.368L14.784 18H11.52L10.608 14.304H4.608L3.696 18H0.432ZM5.352 11.376H9.864L7.824 3.192H7.392L5.352 11.376ZM24.0429 18.336C22.9709 18.336 22.1469 18.152 21.5709 17.784C20.9949 17.416 20.5709 17.008 20.2989 16.56H19.8669V18H16.8909V1.2H19.9149V7.464H20.3469C20.5229 7.176 20.7549 6.904 21.0429 6.648C21.3469 6.392 21.7389 6.184 22.2189 6.024C22.7149 5.848 23.3229 5.76 24.0429 5.76C25.0029 5.76 25.8909 6 26.7069 6.48C27.5229 6.944 28.1789 7.632 28.6749 8.544C29.1709 9.456 29.4189 10.56 29.4189 11.856V12.24C29.4189 13.536 29.1709 14.64 28.6749 15.552C28.1789 16.464 27.5229 17.16 26.7069 17.64C25.8909 18.104 25.0029 18.336 24.0429 18.336ZM23.1309 15.696C24.0589 15.696 24.8349 15.4 25.4589 14.808C26.0829 14.2 26.3949 13.32 26.3949 12.168V11.928C26.3949 10.776 26.0829 9.904 25.4589 9.312C24.8509 8.704 24.0749 8.4 23.1309 8.4C22.2029 8.4 21.4269 8.704 20.8029 9.312C20.1789 9.904 19.8669 10.776 19.8669 11.928V12.168C19.8669 13.32 20.1789 14.2 20.8029 14.808C21.4269 15.4 22.2029 15.696 23.1309 15.696ZM32.1956 18V6.096H35.1716V7.44H35.6036C35.7796 6.96 36.0676 6.608 36.4676 6.384C36.8836 6.16 37.3636 6.048 37.9076 6.048H39.3476V8.736H37.8596C37.0916 8.736 36.4596 8.944 35.9636 9.36C35.4676 9.76 35.2196 10.384 35.2196 11.232V18H32.1956ZM45.126 18.336C44.278 18.336 43.518 18.192 42.846 17.904C42.174 17.6 41.638 17.168 41.238 16.608C40.854 16.032 40.662 15.336 40.662 14.52C40.662 13.704 40.854 13.024 41.238 12.48C41.638 11.92 42.182 11.504 42.87 11.232C43.574 10.944 44.374 10.8 45.27 10.8H48.534V10.128C48.534 9.568 48.358 9.112 48.006 8.76C47.654 8.392 47.094 8.208 46.326 8.208C45.574 8.208 45.014 8.384 44.646 8.736C44.278 9.072 44.038 9.512 43.926 10.056L41.142 9.12C41.334 8.512 41.638 7.96 42.054 7.464C42.486 6.952 43.054 6.544 43.758 6.24C44.478 5.92 45.35 5.76 46.374 5.76C47.942 5.76 49.182 6.152 50.094 6.936C51.006 7.72 51.462 8.856 51.462 10.344V14.784C51.462 15.264 51.686 15.504 52.134 15.504H53.094V18H51.078C50.486 18 49.998 17.856 49.614 17.568C49.23 17.28 49.038 16.896 49.038 16.416V16.392H48.582C48.518 16.584 48.374 16.84 48.15 17.16C47.926 17.464 47.574 17.736 47.094 17.976C46.614 18.216 45.958 18.336 45.126 18.336ZM45.654 15.888C46.502 15.888 47.19 15.656 47.718 15.192C48.262 14.712 48.534 14.08 48.534 13.296V13.056H45.486C44.926 13.056 44.486 13.176 44.166 13.416C43.846 13.656 43.686 13.992 43.686 14.424C43.686 14.856 43.854 15.208 44.19 15.48C44.526 15.752 45.014 15.888 45.654 15.888ZM59.001 18.336C58.153 18.336 57.393 18.192 56.721 17.904C56.049 17.6 55.513 17.168 55.113 16.608C54.729 16.032 54.537 15.336 54.537 14.52C54.537 13.704 54.729 13.024 55.113 12.48C55.513 11.92 56.057 11.504 56.745 11.232C57.449 10.944 58.249 10.8 59.145 10.8H62.409V10.128C62.409 9.568 62.233 9.112 61.881 8.76C61.529 8.392 60.969 8.208 60.201 8.208C59.449 8.208 58.889 8.384 58.521 8.736C58.153 9.072 57.913 9.512 57.801 10.056L55.017 9.12C55.209 8.512 55.513 7.96 55.929 7.464C56.361 6.952 56.929 6.544 57.633 6.24C58.353 5.92 59.225 5.76 60.249 5.76C61.817 5.76 63.057 6.152 63.969 6.936C64.881 7.72 65.337 8.856 65.337 10.344V14.784C65.337 15.264 65.561 15.504 66.009 15.504H66.969V18H64.953C64.361 18 63.873 17.856 63.489 17.568C63.105 17.28 62.913 16.896 62.913 16.416V16.392H62.457C62.393 16.584 62.249 16.84 62.025 17.16C61.801 17.464 61.449 17.736 60.969 17.976C60.489 18.216 59.833 18.336 59.001 18.336ZM59.529 15.888C60.377 15.888 61.065 15.656 61.593 15.192C62.137 14.712 62.409 14.08 62.409 13.296V13.056H59.361C58.801 13.056 58.361 13.176 58.041 13.416C57.721 13.656 57.561 13.992 57.561 14.424C57.561 14.856 57.729 15.208 58.065 15.48C58.401 15.752 58.889 15.888 59.529 15.888ZM74.6096 18.336C73.4256 18.336 72.3616 18.096 71.4176 17.616C70.4736 17.136 69.7296 16.44 69.1856 15.528C68.6416 14.616 68.3696 13.52 68.3696 12.24V11.856C68.3696 10.576 68.6416 9.48 69.1856 8.568C69.7296 7.656 70.4736 6.96 71.4176 6.48C72.3616 6 73.4256 5.76 74.6096 5.76C75.7936 5.76 76.8576 6 77.8016 6.48C78.7456 6.96 79.4896 7.656 80.0336 8.568C80.5776 9.48 80.8496 10.576 80.8496 11.856V12.24C80.8496 13.52 80.5776 14.616 80.0336 15.528C79.4896 16.44 78.7456 17.136 77.8016 17.616C76.8576 18.096 75.7936 18.336 74.6096 18.336ZM74.6096 15.648C75.5376 15.648 76.3056 15.352 76.9136 14.76C77.5216 14.152 77.8256 13.288 77.8256 12.168V11.928C77.8256 10.808 77.5216 9.952 76.9136 9.36C76.3216 8.752 75.5536 8.448 74.6096 8.448C73.6816 8.448 72.9136 8.752 72.3056 9.36C71.6976 9.952 71.3936 10.808 71.3936 11.928V12.168C71.3936 13.288 71.6976 14.152 72.3056 14.76C72.9136 15.352 73.6816 15.648 74.6096 15.648ZM83.0649 18V15.216H85.2729V3.984H83.0649V1.2H89.9769C92.2329 1.2 93.9449 1.776 95.1129 2.928C96.2969 4.064 96.8889 5.76 96.8889 8.016V11.184C96.8889 13.44 96.2969 15.144 95.1129 16.296C93.9449 17.432 92.2329 18 89.9769 18H83.0649ZM88.4409 15.12H90.0249C91.3049 15.12 92.2409 14.784 92.8329 14.112C93.4249 13.44 93.7209 12.496 93.7209 11.28V7.92C93.7209 6.688 93.4249 5.744 92.8329 5.088C92.2409 4.416 91.3049 4.08 90.0249 4.08H88.4409V15.12ZM105.049 18.336C103.865 18.336 102.817 18.088 101.905 17.592C101.009 17.08 100.305 16.368 99.7933 15.456C99.2973 14.528 99.0493 13.44 99.0493 12.192V11.904C99.0493 10.656 99.2973 9.576 99.7933 8.664C100.289 7.736 100.985 7.024 101.881 6.528C102.777 6.016 103.817 5.76 105.001 5.76C106.169 5.76 107.185 6.024 108.049 6.552C108.913 7.064 109.585 7.784 110.065 8.712C110.545 9.624 110.785 10.688 110.785 11.904V12.936H102.121C102.153 13.752 102.457 14.416 103.033 14.928C103.609 15.44 104.313 15.696 105.145 15.696C105.993 15.696 106.617 15.512 107.017 15.144C107.417 14.776 107.721 14.368 107.929 13.92L110.401 15.216C110.177 15.632 109.849 16.088 109.417 16.584C109.001 17.064 108.441 17.48 107.737 17.832C107.033 18.168 106.137 18.336 105.049 18.336ZM102.145 10.68H107.713C107.649 9.992 107.369 9.44 106.873 9.024C106.393 8.608 105.761 8.4 104.977 8.4C104.161 8.4 103.513 8.608 103.033 9.024C102.553 9.44 102.257 9.992 102.145 10.68ZM115.621 18L111.829 6.096H115.045L117.805 15.792H118.237L120.997 6.096H124.213L120.421 18H115.621ZM157.856 10.848C156.896 10.848 156.032 10.64 155.264 10.224C154.512 9.792 153.912 9.2 153.464 8.448C153.032 7.696 152.816 6.832 152.816 5.856C152.816 4.88 153.032 4.016 153.464 3.264C153.912 2.512 154.512 1.928 155.264 1.512C156.032 1.08 156.896 0.863999 157.856 0.863999C158.816 0.863999 159.672 1.08 160.424 1.512C161.192 1.928 161.792 2.512 162.224 3.264C162.672 4.016 162.896 4.88 162.896 5.856C162.896 6.832 162.672 7.696 162.224 8.448C161.792 9.2 161.192 9.792 160.424 10.224C159.672 10.64 158.816 10.848 157.856 10.848ZM157.856 9.84C159.056 9.84 160.016 9.48 160.736 8.76C161.472 8.024 161.84 7.056 161.84 5.856C161.84 4.656 161.472 3.696 160.736 2.976C160.016 2.24 159.056 1.872 157.856 1.872C156.656 1.872 155.688 2.24 154.952 2.976C154.232 3.696 153.872 4.656 153.872 5.856C153.872 7.056 154.232 8.024 154.952 8.76C155.688 9.48 156.656 9.84 157.856 9.84ZM156.128 8.472V3.144H158.168C158.76 3.144 159.208 3.288 159.512 3.576C159.816 3.864 159.968 4.2 159.968 4.584C159.968 4.888 159.888 5.16 159.728 5.4C159.584 5.624 159.344 5.8 159.008 5.928V6.168C159.28 6.184 159.472 6.272 159.584 6.432C159.712 6.592 159.776 6.808 159.776 7.08V8.472H158.768V7.032C158.768 6.696 158.6 6.528 158.264 6.528H157.136V8.472H156.128ZM157.136 5.616H158.168C158.44 5.616 158.64 5.536 158.768 5.376C158.896 5.216 158.96 5.032 158.96 4.824C158.96 4.6 158.896 4.416 158.768 4.272C158.64 4.128 158.44 4.056 158.168 4.056H157.136V5.616Z" fill="white"/>
<path d="M133.088 14.88V12L140.24 9.816V9.384L133.088 7.2V4.32L143.168 7.728V11.472L133.088 14.88Z" fill="#E24141"/>
</svg>
