<svg width="147" height="31" viewBox="0 0 147 31" fill="none" xmlns="http://www.w3.org/2000/svg">
<path d="M140.161 16.848C139.201 16.848 138.337 16.64 137.569 16.224C136.817 15.792 136.217 15.2 135.769 14.448C135.337 13.696 135.121 12.832 135.121 11.856C135.121 10.88 135.337 10.016 135.769 9.264C136.217 8.512 136.817 7.928 137.569 7.512C138.337 7.08 139.201 6.864 140.161 6.864C141.121 6.864 141.977 7.08 142.729 7.512C143.497 7.928 144.097 8.512 144.529 9.264C144.977 10.016 145.201 10.88 145.201 11.856C145.201 12.832 144.977 13.696 144.529 14.448C144.097 15.2 143.497 15.792 142.729 16.224C141.977 16.64 141.121 16.848 140.161 16.848ZM140.161 15.84C141.361 15.84 142.321 15.48 143.041 14.76C143.777 14.024 144.145 13.056 144.145 11.856C144.145 10.656 143.777 9.696 143.041 8.976C142.321 8.24 141.361 7.872 140.161 7.872C138.961 7.872 137.993 8.24 137.257 8.976C136.537 9.696 136.177 10.656 136.177 11.856C136.177 13.056 136.537 14.024 137.257 14.76C137.993 15.48 138.961 15.84 140.161 15.84ZM138.433 14.472V9.144H140.473C141.065 9.144 141.513 9.288 141.817 9.576C142.121 9.864 142.273 10.2 142.273 10.584C142.273 10.888 142.193 11.16 142.033 11.4C141.889 11.624 141.649 11.8 141.313 11.928V12.168C141.585 12.184 141.777 12.272 141.889 12.432C142.017 12.592 142.081 12.808 142.081 13.08V14.472H141.073V13.032C141.073 12.696 140.905 12.528 140.569 12.528H139.441V14.472H138.433ZM139.441 11.616H140.473C140.745 11.616 140.945 11.536 141.073 11.376C141.201 11.216 141.265 11.032 141.265 10.824C141.265 10.6 141.201 10.416 141.073 10.272C140.945 10.128 140.745 10.056 140.473 10.056H139.441V11.616Z" fill="white"/>
<path d="M6.89807 23.5842H10.1004L11.7245 17.0864L20.9772 23.5842L16.6451 7.10394H11.2302L6.89807 23.5842ZM11.7245 17.0864L13.7258 9.05793H14.1494L16.1507 17.0864H11.7245Z" fill="#FEFEFE"/>
<path d="M0 23.5842H3.20237L7.46265 7.10394H4.33206L0 23.5842Z" fill="#D83338"/>
<path d="M30.793 23.8023C33.5932 23.8023 36.0642 21.637 36.0642 17.825V17.4485C36.0642 13.6361 33.6167 11.4712 30.793 11.4712C28.6749 11.4712 27.6631 12.3182 27.1688 13.1421H26.7454V7H23.78V23.4727H26.6982V22.0607H27.1219C27.6631 22.9549 28.6749 23.8023 30.793 23.8023ZM29.8987 21.2137C28.0868 21.2137 26.6982 20.0133 26.6982 17.7543V17.5188C26.6982 15.2598 28.063 14.0598 29.8987 14.0598C31.7341 14.0598 33.0992 15.2598 33.0992 17.5188V17.7543C33.0992 20.0133 31.7106 21.2137 29.8987 21.2137ZM38.7938 23.4727H41.7592V16.8366C41.7592 15.1891 42.8417 14.389 44.3475 14.389H45.8067V11.7535H44.3947C43.3122 11.7535 42.4649 12.1772 42.1357 13.1183H41.712V11.8007H38.7938V23.4727ZM51.4545 23.8023C53.9018 23.8023 54.6312 22.4843 54.8432 21.8958H55.2903V21.9197C55.2903 22.8608 56.1374 23.4727 57.2905 23.4727H59.2671V21.0254H58.326C57.9023 21.0254 57.6669 20.79 57.6669 20.3194V15.9658C57.6669 13.0476 55.7374 11.4712 52.6783 11.4712C49.6426 11.4712 48.113 13.0008 47.5479 14.7658L50.2779 15.6835C50.4896 14.6244 51.1483 13.8716 52.631 13.8716C54.1372 13.8716 54.796 14.6717 54.796 15.7541V16.4129H51.5954C48.96 16.4129 47.0774 17.6602 47.0774 20.0606C47.0774 22.4609 48.96 23.8023 51.4545 23.8023ZM51.9723 21.4019C50.7012 21.4019 50.0424 20.8134 50.0424 19.9664C50.0424 19.1191 50.7012 18.6251 51.8075 18.6251H54.796V18.8602C54.796 20.4136 53.6194 21.4019 51.9723 21.4019ZM65.0562 23.8023C67.5035 23.8023 68.2329 22.4843 68.445 21.8958H68.8921V21.9197C68.8921 22.8608 69.7391 23.4727 70.8922 23.4727H72.8689V21.0254H71.9278C71.5041 21.0254 71.2687 20.79 71.2687 20.3194V15.9658C71.2687 13.0476 69.3392 11.4712 66.2801 11.4712C63.2444 11.4712 61.7148 13.0008 61.1497 14.7658L63.8797 15.6835C64.0914 14.6244 64.7501 13.8716 66.2328 13.8716C67.739 13.8716 68.3977 14.6717 68.3977 15.7541V16.4129H65.1972C62.5618 16.4129 60.6791 17.6602 60.6791 20.0606C60.6791 22.4609 62.5617 23.8023 65.0562 23.8023ZM65.5741 21.4019C64.303 21.4019 63.6442 20.8134 63.6442 19.9664C63.6442 19.1191 64.303 18.6251 65.4092 18.6251H68.3977V18.8602C68.3977 20.4136 67.2212 21.4019 65.5741 21.4019ZM80.352 23.8023C83.8349 23.8023 86.4707 21.5901 86.4707 17.825V17.4485C86.4707 13.6833 83.8349 11.4712 80.352 11.4712C76.8696 11.4712 74.2337 13.6833 74.2337 17.4485V17.825C74.2337 21.5901 76.8696 23.8023 80.352 23.8023ZM80.352 21.1664C78.5401 21.1664 77.1987 19.943 77.1987 17.7543V17.5188C77.1987 15.3305 78.5167 14.1066 80.352 14.1066C82.1877 14.1066 83.5056 15.3305 83.5056 17.5188V17.7543C83.5056 19.943 82.1643 21.1664 80.352 21.1664ZM88.6356 23.4727H95.413C99.8369 23.4727 102.19 21.2137 102.19 16.7893V13.6833C102.19 9.25903 99.8369 7 95.413 7H88.6356V9.7296H90.8005V20.7427H88.6356V23.4727ZM93.9069 20.6486V9.82372H95.4599C97.9544 9.82372 99.0841 11.1888 99.0841 13.5892V16.8835C99.0841 19.2838 97.9544 20.6486 95.4599 20.6486H93.9069ZM110.191 23.8023C113.392 23.8023 114.78 21.99 115.439 20.7427L113.015 19.4721C112.615 20.3663 111.933 21.2137 110.285 21.2137C108.638 21.2137 107.391 20.1074 107.32 18.5076H115.816V17.4953C115.816 13.9184 113.58 11.4712 110.144 11.4712C106.661 11.4712 104.308 13.8243 104.308 17.4953V17.7777C104.308 21.4488 106.685 23.8023 110.191 23.8023ZM107.344 16.2953C107.555 14.954 108.52 14.0598 110.121 14.0598C111.65 14.0598 112.662 14.954 112.803 16.2953H107.344ZM120.569 23.4727H125.275L128.994 11.8007H125.84L123.134 21.3078H122.711L120.004 11.8007H116.851L120.569 23.4727Z" fill="#FEFEFE"/>
</svg>
