<svg width="466" height="525" viewBox="0 0 466 525" fill="none" xmlns="http://www.w3.org/2000/svg">
<g clip-path="url(#clip0_8_26)">
<path opacity="0.07" d="M465.724 249.378C458.723 245.3 453.651 245.189 450.509 249.047C447.366 252.85 445.822 259.298 445.822 268.391V317.385C445.822 326.699 444.94 334.414 443.231 340.532C441.522 346.869 438.6 351.388 434.576 354.034C430.662 356.734 425.369 357.451 418.643 356.183C412.083 354.971 403.869 351.554 394.055 345.877L389.369 343.177V304.599L395.213 307.961C402.215 312.039 406.901 312.535 409.271 309.559C411.752 306.693 413.02 300.686 413.02 291.593V248.441C413.02 237.198 414.123 228.325 416.328 221.767C418.533 215.209 422.888 211.076 429.449 209.202C422.888 199.778 418.533 190.574 416.328 181.536C414.123 172.498 413.075 162.357 413.075 151.115V107.963C413.075 98.8693 411.807 91.4845 409.326 85.6978C407.011 80.0213 402.325 75.1716 395.268 71.0933L389.425 67.7316V29.1538L394.111 31.8542C403.924 37.5307 412.138 43.5378 418.699 49.9307C425.424 56.3787 430.717 63.2676 434.631 70.4871C438.711 77.8169 441.577 85.6427 443.286 93.9644C444.996 102.066 445.878 110.828 445.878 120.087V169.081C445.878 178.174 447.421 186.441 450.564 193.826C453.706 201.266 458.778 206.997 465.78 211.02L465.724 249.378Z" fill="url(#paint0_linear_8_26)"/>
<path opacity="0.07" d="M287.93 107.467C294.932 111.545 300.004 111.655 303.146 107.797C306.289 103.995 307.832 97.5467 307.832 88.4533V39.4595C307.832 30.1458 308.714 22.4302 310.423 16.3129C312.132 9.9751 314.944 5.40088 318.858 2.70044C322.938 0.0551035 328.23 -0.661341 334.791 0.551104C341.517 1.81866 349.786 5.29066 359.599 10.9671L364.285 13.6675V52.2453L358.442 48.8835C351.44 44.8053 346.644 44.2542 344.163 47.12C341.847 50.096 340.635 56.1031 340.635 65.1964V108.348C340.635 119.591 339.532 128.464 337.327 135.022C335.122 141.525 330.766 145.714 324.206 147.588C330.766 157.012 335.122 166.215 337.327 175.253C339.532 184.292 340.579 194.432 340.579 205.675V248.827C340.579 257.92 341.737 265.305 344.108 270.981C346.589 276.768 351.385 281.673 358.386 285.696L364.23 289.058V327.636L359.544 324.935C349.731 319.259 341.461 313.196 334.736 306.748C328.175 300.356 322.883 293.522 318.803 286.192C314.889 278.972 312.077 271.202 310.368 262.825C308.659 254.724 307.777 245.961 307.777 236.702V187.708C307.777 178.615 306.233 170.348 303.091 162.964C299.949 155.524 294.877 149.792 287.875 145.769L287.93 107.467Z" fill="url(#paint1_linear_8_26)"/>
<path opacity="0.4" d="M443.672 265.911C436.671 261.833 431.599 261.723 428.457 265.58C425.314 269.383 423.77 275.831 423.77 284.924V333.918C423.77 343.232 422.888 350.948 421.179 357.065C419.47 363.403 416.548 367.922 412.524 370.567C408.61 373.268 403.317 373.984 396.591 372.716C390.031 371.504 381.817 368.087 372.003 362.411L367.317 359.71V321.132L373.161 324.494C380.163 328.572 384.849 329.068 387.219 326.092C389.7 323.227 390.968 317.22 390.968 308.126V264.974C390.968 253.732 392.071 244.859 394.276 238.3C396.481 231.742 400.836 227.609 407.397 225.735C400.836 216.311 396.481 207.108 394.276 198.069C392.071 189.031 391.023 178.891 391.023 167.648V124.496C391.023 115.403 389.755 108.018 387.274 102.231C384.959 96.5547 380.273 91.7049 373.216 87.6267L367.372 84.2649V45.6871L372.059 48.3876C381.872 54.064 390.086 60.0711 396.647 66.464C403.372 72.912 408.665 79.8009 412.579 87.0205C416.659 94.3502 419.525 102.176 421.234 110.498C422.944 118.599 423.826 127.362 423.826 136.62V185.614C423.826 194.708 425.369 202.974 428.512 210.359C431.654 217.799 436.726 223.531 443.728 227.554L443.672 265.911Z" fill="url(#paint2_linear_8_26)"/>
<path opacity="0.4" d="M265.878 124C272.88 128.078 277.952 128.188 281.094 124.331C284.237 120.528 285.78 114.08 285.78 104.987V55.9929C285.78 46.6791 286.662 38.9636 288.371 32.8462C290.08 26.5085 292.892 21.9342 296.806 19.2338C300.886 16.5885 306.178 15.872 312.739 17.0845C319.465 18.352 327.734 21.824 337.547 27.5005L342.233 30.2009V68.7787L336.389 65.4169C329.388 61.3387 324.592 60.7876 322.111 63.6534C319.795 66.6294 318.582 72.6365 318.582 81.7298V124.882C318.582 136.124 317.48 144.997 315.275 151.556C313.069 158.059 308.714 162.247 302.154 164.121C308.714 173.545 313.069 182.748 315.275 191.787C317.48 200.825 318.527 210.965 318.527 222.208V265.36C318.527 274.453 319.685 281.838 322.056 287.515C324.537 293.301 329.333 298.206 336.334 302.229L342.178 305.591V344.169L337.492 341.469C327.679 335.792 319.409 329.73 312.684 323.282C306.123 316.889 300.831 310.055 296.751 302.725C292.837 295.506 290.025 287.735 288.316 279.358C286.607 271.257 285.725 262.494 285.725 253.236V204.242C285.725 195.148 284.181 186.882 281.039 179.497C277.897 172.057 272.825 166.325 265.823 162.302L265.878 124Z" fill="url(#paint3_linear_8_26)"/>
<path d="M216.491 274.134C224.862 284.578 234.159 296.043 240.681 304.059C247.933 282.295 238.247 251.884 227.442 229.149C224.862 243.286 221.261 258.248 216.491 274.134Z" fill="#CE4A4A"/>
<path d="M165.483 193.588C154.727 203.887 145.09 223.125 152.342 253.196C158.864 252.661 168.111 251.933 176.483 251.156C171.713 229.78 168.111 210.689 165.483 193.588Z" fill="#E24141"/>
<path opacity="0.2" d="M188.651 300.707C128.493 70.1471 177.992 50.5695 196.681 42.6995C215.371 72.1389 264.822 148.701 204.615 309.889L188.651 300.707Z" fill="url(#paint4_linear_8_26)"/>
<path opacity="0.1" d="M206.367 287.445C146.209 56.9334 195.659 37.3072 214.398 29.4372C233.088 58.8766 282.538 135.438 222.331 296.626L206.367 287.445Z" fill="url(#paint5_linear_8_26)"/>
<path opacity="0.15" d="M204.615 309.889C264.822 148.701 215.371 72.1389 196.682 42.6995V305.322L204.615 309.889Z" fill="url(#paint6_linear_8_26)"/>
<path opacity="0.1" d="M214.593 123.876C214.593 137.916 206.318 144.523 196.097 138.645C185.876 132.766 177.602 116.589 177.602 102.55C177.602 88.5103 185.876 81.9034 196.097 87.7816C206.318 93.6597 214.593 109.837 214.593 123.876Z" fill="white"/>
<path opacity="0.1" d="M210.942 362.063C206.708 355.165 204.664 346.421 202.863 338.745C200.77 329.903 199.018 322.374 194.637 320.479C189.624 318.293 187.385 323.831 184.222 331.507C182.372 336.025 180.182 341.368 176.97 346.275C173.514 342.631 169.864 339.619 166.018 337.433C149.908 328.155 136.475 336.17 133.311 355.311C131.121 353.659 128.931 352.153 126.692 350.841C100.847 335.976 79.9186 352.833 79.9186 388.588C79.9186 424.294 100.847 465.295 126.643 480.161C151.709 494.589 172.2 479.092 173.368 445.523C178.089 454.268 184.368 461.603 191.328 465.587C193.128 466.607 194.881 467.384 196.535 467.87C206.562 489.877 221.504 508.823 238.198 518.442C268.375 535.833 292.856 516.207 292.905 474.623C292.905 433.038 268.423 385.187 238.247 367.796C228.269 362.063 218.973 360.314 210.942 362.063Z" fill="url(#paint7_linear_8_26)"/>
<path opacity="0.3" d="M259.565 203.013L391.319 278.943L391.367 347.489L271.246 278.263L259.614 282.052L259.565 203.013Z" fill="url(#paint8_linear_8_26)"/>
<path d="M353.014 290.991V272.385L402.757 301.047V319.653L353.014 290.991Z" fill="#CE4A4A"/>
<path opacity="0.1" d="M293.44 239.205L322.303 255.819V261.843L293.44 245.229V239.205Z" fill="white"/>
<path opacity="0.1" d="M293.489 251.253L345.568 281.275V287.299L293.489 257.277V251.253Z" fill="white"/>
<path opacity="0.15" d="M293.489 263.3L360.899 302.164V308.188L293.489 269.324V263.3Z" fill="white"/>
<path d="M286.334 241.391C286.334 247.026 282.976 249.698 278.839 247.318C274.702 244.937 271.344 238.428 271.344 232.792C271.344 227.157 274.702 224.485 278.839 226.866C283.025 229.246 286.334 235.756 286.334 241.391Z" fill="#CE4A4A"/>
<path opacity="0.3" d="M145.917 106.193L14.1633 30.3116L14.212 98.8578L134.333 168.035L145.966 185.233L145.917 106.193Z" fill="url(#paint9_linear_8_26)"/>
<path d="M0.0974121 57.0306V38.4245L49.8397 67.0866V85.6927L0.0974121 57.0306Z" fill="#E24141"/>
<path opacity="0.15" d="M112.042 103.376L83.1796 86.7614V92.7853L112.042 109.4V103.376Z" fill="white"/>
<path opacity="0.15" d="M112.042 115.424L56.4103 83.3608V89.3847L112.042 121.447V115.424Z" fill="white"/>
<path opacity="0.15" d="M112.042 127.471L44.6318 88.6074V94.6313L112.042 133.495V127.471Z" fill="white"/>
<path d="M119.148 113.723C119.148 119.358 122.506 125.868 126.643 128.249C130.78 130.629 134.139 127.957 134.139 122.322C134.139 116.687 130.78 110.177 126.643 107.796C122.506 105.465 119.148 108.088 119.148 113.723Z" fill="#E24141"/>
<path opacity="0.2" d="M128.395 179.355L49.6936 134.03V174.934L128.395 220.259V179.355Z" fill="url(#paint10_linear_8_26)"/>
<path opacity="0.15" d="M69.8436 155.453L96.8076 170.999V175.905L69.8436 160.36V155.453Z" fill="white"/>
<path opacity="0.15" d="M69.8436 165.315L120.267 194.366V199.321L69.8436 170.27V165.315Z" fill="white"/>
<path d="M65.7065 156.911C65.7065 160.263 63.711 161.866 61.2288 160.457C58.7465 159.048 56.751 155.162 56.751 151.761C56.751 148.409 58.7465 146.806 61.2288 148.215C63.6623 149.672 65.7065 153.559 65.7065 156.911Z" fill="#E24141"/>
<path opacity="0.2" d="M362.116 210.251L283.414 164.926V205.831L362.116 251.204V210.251Z" fill="url(#paint11_linear_8_26)"/>
<path opacity="0.15" d="M303.564 186.399L330.528 201.944V206.851L303.564 191.305V186.399Z" fill="white"/>
<path opacity="0.15" d="M303.613 196.26L354.036 225.311V230.266L303.613 201.215V196.26Z" fill="white"/>
<path d="M299.427 187.856C299.427 191.208 297.431 192.811 294.949 191.402C292.467 189.994 290.471 186.107 290.471 182.707C290.471 179.355 292.467 177.751 294.949 179.16C297.431 180.618 299.427 184.504 299.427 187.856Z" fill="#CE4A4A"/>
</g>
<defs>
<linearGradient id="paint0_linear_8_26" x1="500.395" y1="40.2884" x2="364.47" y2="275.946" gradientUnits="userSpaceOnUse">
<stop stop-color="white"/>
<stop offset="1" stop-color="white" stop-opacity="0"/>
</linearGradient>
<linearGradient id="paint1_linear_8_26" x1="435.017" y1="1.56074" x2="299.117" y2="237.177" gradientUnits="userSpaceOnUse">
<stop stop-color="white"/>
<stop offset="1" stop-color="white" stop-opacity="0"/>
</linearGradient>
<linearGradient id="paint2_linear_8_26" x1="478.343" y1="56.8217" x2="342.418" y2="292.48" gradientUnits="userSpaceOnUse">
<stop stop-color="white"/>
<stop offset="1" stop-color="white" stop-opacity="0"/>
</linearGradient>
<linearGradient id="paint3_linear_8_26" x1="412.965" y1="18.0941" x2="277.065" y2="253.711" gradientUnits="userSpaceOnUse">
<stop stop-color="white"/>
<stop offset="1" stop-color="white" stop-opacity="0"/>
</linearGradient>
<linearGradient id="paint4_linear_8_26" x1="266.817" y1="50.8753" x2="115.949" y2="312.75" gradientUnits="userSpaceOnUse">
<stop stop-color="white"/>
<stop offset="1" stop-color="white" stop-opacity="0"/>
</linearGradient>
<linearGradient id="paint5_linear_8_26" x1="284.525" y1="37.6146" x2="133.657" y2="299.489" gradientUnits="userSpaceOnUse">
<stop stop-color="white"/>
<stop offset="1" stop-color="white" stop-opacity="0"/>
</linearGradient>
<linearGradient id="paint6_linear_8_26" x1="238.609" y1="107.928" x2="122.152" y2="318.455" gradientUnits="userSpaceOnUse">
<stop stop-color="white" stop-opacity="0"/>
<stop offset="1" stop-color="white"/>
</linearGradient>
<linearGradient id="paint7_linear_8_26" x1="227.644" y1="361.702" x2="162.481" y2="474.811" gradientUnits="userSpaceOnUse">
<stop stop-color="white"/>
<stop offset="1" stop-color="white" stop-opacity="0"/>
</linearGradient>
<linearGradient id="paint8_linear_8_26" x1="316.169" y1="205.233" x2="333.141" y2="343.143" gradientUnits="userSpaceOnUse">
<stop stop-color="white"/>
<stop offset="1" stop-color="white" stop-opacity="0"/>
</linearGradient>
<linearGradient id="paint9_linear_8_26" x1="117.193" y1="78.7566" x2="49.2564" y2="132.049" gradientUnits="userSpaceOnUse">
<stop stop-color="white"/>
<stop offset="1" stop-color="white" stop-opacity="0"/>
</linearGradient>
<linearGradient id="paint10_linear_8_26" x1="97.9195" y1="161.797" x2="80.2196" y2="192.52" gradientUnits="userSpaceOnUse">
<stop stop-color="white"/>
<stop offset="1" stop-color="white" stop-opacity="0"/>
</linearGradient>
<linearGradient id="paint11_linear_8_26" x1="331.651" y1="192.7" x2="313.937" y2="223.447" gradientUnits="userSpaceOnUse">
<stop stop-color="white"/>
<stop offset="1" stop-color="white" stop-opacity="0"/>
</linearGradient>
<clipPath id="clip0_8_26">
<rect width="465.68" height="524.8" fill="white"/>
</clipPath>
</defs>
</svg>
